<svg width="37" height="37" viewBox="0 0 37 37" fill="none" xmlns="http://www.w3.org/2000/svg">
<path d="M18.5215 36.7731C28.7237 36.7731 36.9942 28.5789 36.9942 18.4709C36.9942 8.36288 28.7237 0.168701 18.5215 0.168701C8.31941 0.168701 0.0489502 8.36288 0.0489502 18.4709C0.0489502 28.5789 8.31941 36.7731 18.5215 36.7731Z" fill="#F9DF70"/>
<path d="M25.4679 12.0657C23.1133 12.0657 21.1991 13.9622 21.1991 16.2951C21.1991 16.7605 21.5808 17.1386 22.0505 17.1386C22.5202 17.1386 22.9019 16.7605 22.9019 16.2951C22.9019 14.8989 24.0528 13.7586 25.462 13.7586C26.8712 13.7586 28.0221 14.8989 28.0221 16.2951C28.0221 16.7605 28.4038 17.1386 28.8735 17.1386C29.3432 17.1386 29.7249 16.7605 29.7249 16.2951C29.7367 13.9622 27.8225 12.0657 25.4679 12.0657Z" fill="#C6A20C"/>
<path d="M14.3761 16.2893C14.3761 16.7547 14.7578 17.1329 15.2275 17.1329C15.6973 17.1329 16.0789 16.7547 16.0789 16.2893C16.0789 13.9565 14.1647 12.0599 11.8101 12.0599C9.45556 12.0599 7.54724 13.9623 7.54724 16.2893C7.54724 16.7547 7.9289 17.1329 8.39864 17.1329C8.86838 17.1329 9.25005 16.7547 9.25005 16.2893C9.25005 14.8931 10.4009 13.7529 11.8101 13.7529C13.2252 13.7529 14.3761 14.8931 14.3761 16.2893Z" fill="#C6A20C"/>
<path d="M28.7443 20.4141C28.7443 26.0048 24.1702 30.5425 18.5216 30.5425C12.8729 30.5425 8.29883 26.0106 8.29883 20.4141H28.7443Z" fill="white"/>
<path d="M28.7443 20.4141C28.7443 26.0048 24.1702 30.5425 18.5216 30.5425C12.8729 30.5425 8.29883 26.0106 8.29883 20.4141H28.7443Z" stroke="#C6A20C" stroke-width="1.68" stroke-miterlimit="10" stroke-linecap="round" stroke-linejoin="round"/>
</svg>
