<svg width="38" height="37" viewBox="0 0 38 37" fill="none" xmlns="http://www.w3.org/2000/svg">
<path d="M18.5655 36.6044C28.7676 36.6044 37.0381 28.4102 37.0381 18.3022C37.0381 8.19417 28.7676 0 18.5655 0C8.36336 0 0.0928955 8.19417 0.0928955 18.3022C0.0928955 28.4102 8.36336 36.6044 18.5655 36.6044Z" fill="#F9DF70"/>
<path d="M12.2475 17.8484C13.6567 17.8484 14.8076 16.7082 14.8076 15.312C14.8076 13.9157 13.6567 12.7755 12.2475 12.7755C10.8382 12.7755 9.68738 13.9157 9.68738 15.312C9.68738 16.7082 10.8324 17.8484 12.2475 17.8484ZM12.2475 14.4626C12.7172 14.4626 13.0989 14.8407 13.0989 15.3061C13.0989 15.7716 12.7172 16.1497 12.2475 16.1497C11.7777 16.1497 11.3961 15.7716 11.3961 15.3061C11.3961 14.8407 11.7777 14.4626 12.2475 14.4626Z" fill="#C6A20C"/>
<path d="M25.9052 12.7755C24.496 12.7755 23.3451 13.9157 23.3451 15.312C23.3451 16.7082 24.496 17.8484 25.9052 17.8484C27.3144 17.8484 28.4653 16.7082 28.4653 15.312C28.4653 13.9157 27.3144 12.7755 25.9052 12.7755ZM25.9052 16.1555C25.4355 16.1555 25.0538 15.7774 25.0538 15.312C25.0538 14.8466 25.4355 14.4684 25.9052 14.4684C26.375 14.4684 26.7566 14.8466 26.7566 15.312C26.7566 15.7774 26.375 16.1555 25.9052 16.1555Z" fill="#C6A20C"/>
<path d="M27.608 22.9214H10.5388C10.0691 22.9214 9.68738 23.2996 9.68738 23.765C9.68738 24.2304 10.0691 24.6085 10.5388 24.6085H27.608C28.0778 24.6085 28.4594 24.2304 28.4594 23.765C28.4653 23.2996 28.0778 22.9214 27.608 22.9214Z" fill="#C6A20C"/>
</svg>
