<svg width="37" height="38" viewBox="0 0 37 38" fill="none" xmlns="http://www.w3.org/2000/svg">
<path d="M18.2241 37.1237C28.289 37.1237 36.4482 28.9305 36.4482 18.8237C36.4482 8.71687 28.289 0.523682 18.2241 0.523682C8.15921 0.523682 0 8.71687 0 18.8237C0 28.9305 8.15921 37.1237 18.2241 37.1237Z" fill="#F9DF70"/>
<path d="M14.0532 15.4441C14.0532 14.0481 12.9178 12.908 11.5275 12.908C10.1372 12.908 9.00185 14.0481 9.00185 15.4441C9.00185 16.8402 10.1372 17.9803 11.5275 17.9803C12.9178 17.9803 14.0532 16.8402 14.0532 15.4441ZM10.6818 15.4441C10.6818 14.9788 11.0583 14.6007 11.5217 14.6007C11.9851 14.6007 12.3617 14.9788 12.3617 15.4441C12.3617 15.9095 11.9851 16.2876 11.5217 16.2876C11.0583 16.2876 10.6818 15.9095 10.6818 15.4441Z" fill="#C6A20C"/>
<path d="M24.9956 12.908C23.6054 12.908 22.47 14.0481 22.47 15.4441C22.47 16.8402 23.6054 17.9803 24.9956 17.9803C26.3859 17.9803 27.5213 16.8402 27.5213 15.4441C27.5213 14.0481 26.3917 12.908 24.9956 12.908ZM24.9956 16.2876C24.5322 16.2876 24.1557 15.9095 24.1557 15.4441C24.1557 14.9788 24.5322 14.6007 24.9956 14.6007C25.459 14.6007 25.8356 14.9788 25.8356 15.4441C25.8356 15.9095 25.4648 16.2876 24.9956 16.2876Z" fill="#C6A20C"/>
<path d="M18.259 23.0526C15.1193 23.0526 12.1302 24.3905 10.0506 26.7173C9.7436 27.0663 9.77256 27.6015 10.1143 27.9098C10.4619 28.2239 10.9948 28.189 11.3019 27.8458C13.0571 25.8738 15.5943 24.7454 18.2532 24.7454C20.9121 24.7454 23.4493 25.8738 25.2045 27.8458C25.3725 28.0319 25.5985 28.125 25.8302 28.125C26.0271 28.125 26.2299 28.0552 26.3921 27.9098C26.7396 27.6015 26.7686 27.0663 26.4558 26.7173C24.3935 24.3905 21.4045 23.0526 18.259 23.0526Z" fill="#C6A20C"/>
</svg>
